<svg xmlns="http://www.w3.org/2000/svg" width="137" height="24" viewBox="0 0 137 24" fill="none">
  <path d="M4.00392 3.6761L10.3727 0L16.7415 3.6761L14.4 5.03415L10.3727 2.7161L6.34539 5.03415L4.00392 3.6761ZM16.7415 8.31219L14.4 6.95415L10.3727 9.2722L6.34539 6.95415L4.00392 8.31219V11.0283L8.03123 13.3463V17.9824L10.3727 19.3405L12.7142 17.9824V13.3463L16.7415 11.0283V8.31219ZM16.7415 15.6644V12.9483L14.4 14.3063V17.0224L16.7415 15.6644ZM18.4039 16.6244L14.3766 18.9424V21.6585L20.7454 17.9824V10.6302L18.4039 11.9883V16.6244ZM16.0625 5.99415L18.4039 7.35219V10.0683L20.7454 8.71024V5.99415L18.4039 4.6361L16.0625 5.99415ZM8.03123 19.9259V22.642L10.3727 24L12.7142 22.642V19.9259L10.3727 21.2839L8.03123 19.9259ZM4.00392 15.6644L6.34539 17.0224V14.3063L4.00392 12.9483V15.6644ZM8.03123 5.99415L10.3727 7.35219L12.7142 5.99415L10.3727 4.6361L8.03123 5.99415ZM2.34146 7.35219L4.68293 5.99415L2.34146 4.6361L0 5.99415V8.71024L2.34146 10.0683V7.35219ZM2.34146 11.9883L0 10.6302V17.9824L6.36877 21.6585V18.9424L2.34146 16.6244V11.9883Z" fill="#F0B90B"/>
  <path d="M39.2049 15.0623V15.0241C39.2049 13.2305 38.2509 12.3337 36.7053 11.7422C37.6594 11.2079 38.4608 10.3684 38.4608 8.86096V8.8228C38.4608 6.72389 36.7816 5.36914 34.0531 5.36914H27.8517V18.7258H34.2057C37.2205 18.7258 39.2049 17.5046 39.2049 15.0623ZM35.5414 9.35707C35.5414 10.3493 34.7209 10.7691 33.4234 10.7691H30.7139V7.94507H33.6142C34.8545 7.94507 35.5414 8.44118 35.5414 9.3189V9.35707ZM36.2855 14.6997C36.2855 15.692 35.5032 16.1499 34.2057 16.1499H30.7139V13.2114H34.1103C35.6177 13.2114 36.2855 13.7648 36.2855 14.6616V14.6997Z" fill="#F0B90B"/>
  <path d="M53.6813 18.7258V5.36914H50.781V13.593L44.5224 5.36914H41.8129V18.7258H44.7132V10.2348L51.1817 18.7258H53.6813Z" fill="#F0B90B"/>
  <path d="M68.4316 15.0623V15.0241C68.4316 13.2305 67.4776 12.3337 65.932 11.7422C66.8861 11.2079 67.6875 10.3684 67.6875 8.86096V8.8228C67.6875 6.72389 66.0084 5.36914 63.2798 5.36914H57.0785V18.7258H63.4324C66.4472 18.7258 68.4316 17.5046 68.4316 15.0623ZM64.7681 9.35707C64.7681 10.3493 63.9476 10.7691 62.6501 10.7691H59.9406V7.94507H62.8409C64.0812 7.94507 64.7681 8.44118 64.7681 9.3189V9.35707ZM65.5122 14.6997C65.5122 15.692 64.7299 16.1499 63.4324 16.1499H59.9406V13.2114H63.337C64.8444 13.2114 65.5122 13.7648 65.5122 14.6616V14.6997Z" fill="#F0B90B"/>
  <path d="M86.1413 16.3666L84.6339 14.8401C83.4891 15.9086 82.4396 16.5765 80.7987 16.5765C78.2418 16.5765 76.391 14.4394 76.391 11.8062C76.391 9.17303 78.2418 7.07412 80.7987 7.07412C82.3251 7.07412 83.47 7.74196 84.5385 8.73417L86.0459 6.9978C84.7675 5.77661 83.2792 4.91797 80.8177 4.91797C76.7726 4.91797 73.9295 8.02817 73.9295 11.8444C73.9295 15.6987 76.8298 18.7326 80.7223 18.7326C83.2219 18.7326 84.7484 17.8167 86.1413 16.3666Z" fill="#F0B90B"/>
  <path d="M97.519 12.8747V18.5036H99.8659V5.14694H97.519V10.6995H91.1459V5.14694H88.799V18.5036H91.1459V12.8747H97.519Z" fill="#F0B90B"/>
  <path d="M110.394 5.05154H108.219L102.342 18.5036H104.746L106.12 15.2789H112.436L113.791 18.5036H116.271L110.394 5.05154ZM111.577 13.1991H106.979L109.268 7.85644L111.577 13.1991Z" fill="#F0B90B"/>
  <path d="M118.886 5.14694V18.5036H121.233V5.14694H118.886Z" fill="#F0B90B"/>
  <path d="M134.33 14.3821L127.174 5.14694H124.999V18.5036H127.308V9.0013L134.673 18.5036H136.639V5.14694H134.33V14.3821Z" fill="#F0B90B"/>
</svg>